<mxfile host="app.diagrams.net" modified="2024-06-14T03:40:52.076Z" agent="Mozilla/5.0 (X11; Linux x86_64) AppleWebKit/537.36 (KHTML, like Gecko) Chrome/125.0.0.0 Safari/537.36" etag="Pbg6_4CfBF1Y73tKMqkW" version="24.5.4" type="device">
  <diagram name="Page-1" id="wLf1nhtJa03toLaMT2m9">
    <mxGraphModel dx="813" dy="416" grid="1" gridSize="10" guides="1" tooltips="1" connect="1" arrows="1" fold="1" page="1" pageScale="1" pageWidth="1920" pageHeight="1200" math="0" shadow="0">
      <root>
        <mxCell id="0" />
        <mxCell id="1" parent="0" />
        <mxCell id="Lz_0s9tKfAzu82U7_1z1-38" value="" style="rounded=0;whiteSpace=wrap;html=1;fillColor=none;fontSize=14;fontFamily=Helvetica;verticalAlign=middle;" parent="1" vertex="1">
          <mxGeometry x="40" y="100" width="660" height="730" as="geometry" />
        </mxCell>
        <mxCell id="Lz_0s9tKfAzu82U7_1z1-3" value="" style="edgeStyle=orthogonalEdgeStyle;rounded=0;orthogonalLoop=1;jettySize=auto;html=1;fontSize=14;fontFamily=Helvetica;verticalAlign=middle;" parent="1" source="Lz_0s9tKfAzu82U7_1z1-1" target="Lz_0s9tKfAzu82U7_1z1-2" edge="1">
          <mxGeometry relative="1" as="geometry" />
        </mxCell>
        <mxCell id="Lz_0s9tKfAzu82U7_1z1-1" value="Data" style="rounded=0;whiteSpace=wrap;html=1;fontSize=14;fontFamily=Helvetica;verticalAlign=middle;horizontal=1;" parent="1" vertex="1">
          <mxGeometry x="40" y="40" width="120" height="40" as="geometry" />
        </mxCell>
        <mxCell id="Lz_0s9tKfAzu82U7_1z1-5" value="" style="edgeStyle=orthogonalEdgeStyle;rounded=0;orthogonalLoop=1;jettySize=auto;html=1;fontSize=14;fontFamily=Helvetica;verticalAlign=middle;" parent="1" source="Lz_0s9tKfAzu82U7_1z1-2" target="Lz_0s9tKfAzu82U7_1z1-4" edge="1">
          <mxGeometry relative="1" as="geometry" />
        </mxCell>
        <mxCell id="Lz_0s9tKfAzu82U7_1z1-2" value="Pre-processor" style="whiteSpace=wrap;html=1;rounded=0;fontSize=14;fontFamily=Helvetica;verticalAlign=middle;" parent="1" vertex="1">
          <mxGeometry x="560" y="40" width="120" height="40" as="geometry" />
        </mxCell>
        <mxCell id="Lz_0s9tKfAzu82U7_1z1-26" style="edgeStyle=orthogonalEdgeStyle;rounded=0;orthogonalLoop=1;jettySize=auto;html=1;exitX=0;exitY=0.25;exitDx=0;exitDy=0;entryX=1;entryY=0.25;entryDx=0;entryDy=0;fontSize=14;fontFamily=Helvetica;verticalAlign=middle;" parent="1" source="Lz_0s9tKfAzu82U7_1z1-4" target="Lz_0s9tKfAzu82U7_1z1-9" edge="1">
          <mxGeometry relative="1" as="geometry" />
        </mxCell>
        <mxCell id="Lz_0s9tKfAzu82U7_1z1-27" style="edgeStyle=orthogonalEdgeStyle;rounded=0;orthogonalLoop=1;jettySize=auto;html=1;exitX=0;exitY=0.5;exitDx=0;exitDy=0;entryX=1;entryY=0.5;entryDx=0;entryDy=0;fontSize=14;fontFamily=Helvetica;verticalAlign=middle;" parent="1" source="Lz_0s9tKfAzu82U7_1z1-4" target="Lz_0s9tKfAzu82U7_1z1-13" edge="1">
          <mxGeometry relative="1" as="geometry" />
        </mxCell>
        <mxCell id="Lz_0s9tKfAzu82U7_1z1-28" style="edgeStyle=orthogonalEdgeStyle;rounded=0;orthogonalLoop=1;jettySize=auto;html=1;exitX=0;exitY=0.75;exitDx=0;exitDy=0;entryX=1;entryY=0.5;entryDx=0;entryDy=0;fontSize=14;fontFamily=Helvetica;verticalAlign=middle;" parent="1" target="Lz_0s9tKfAzu82U7_1z1-15" edge="1">
          <mxGeometry relative="1" as="geometry">
            <mxPoint x="620" y="150" as="sourcePoint" />
            <mxPoint x="500" y="300" as="targetPoint" />
            <Array as="points">
              <mxPoint x="540" y="150" />
              <mxPoint x="540" y="260" />
            </Array>
          </mxGeometry>
        </mxCell>
        <mxCell id="Lz_0s9tKfAzu82U7_1z1-29" style="edgeStyle=orthogonalEdgeStyle;rounded=0;orthogonalLoop=1;jettySize=auto;html=1;exitX=0.25;exitY=1;exitDx=0;exitDy=0;entryX=1;entryY=0.5;entryDx=0;entryDy=0;fontSize=14;fontFamily=Helvetica;verticalAlign=middle;" parent="1" source="Lz_0s9tKfAzu82U7_1z1-4" target="Lz_0s9tKfAzu82U7_1z1-19" edge="1">
          <mxGeometry relative="1" as="geometry" />
        </mxCell>
        <mxCell id="Lz_0s9tKfAzu82U7_1z1-31" style="edgeStyle=orthogonalEdgeStyle;rounded=0;orthogonalLoop=1;jettySize=auto;html=1;exitX=0.5;exitY=1;exitDx=0;exitDy=0;entryX=1;entryY=0.5;entryDx=0;entryDy=0;fontSize=14;fontFamily=Helvetica;verticalAlign=middle;" parent="1" source="Lz_0s9tKfAzu82U7_1z1-4" target="Lz_0s9tKfAzu82U7_1z1-30" edge="1">
          <mxGeometry relative="1" as="geometry" />
        </mxCell>
        <mxCell id="Lz_0s9tKfAzu82U7_1z1-4" value="Dtype" style="whiteSpace=wrap;html=1;rounded=0;fontSize=14;fontFamily=Helvetica;verticalAlign=middle;" parent="1" vertex="1">
          <mxGeometry x="560" y="120" width="120" height="40" as="geometry" />
        </mxCell>
        <mxCell id="Lz_0s9tKfAzu82U7_1z1-57" value="" style="group;fontSize=14;fontFamily=Helvetica;verticalAlign=middle;" parent="1" vertex="1" connectable="0">
          <mxGeometry x="100" y="120" width="200" height="290" as="geometry" />
        </mxCell>
        <mxCell id="Lz_0s9tKfAzu82U7_1z1-40" value="" style="rounded=0;whiteSpace=wrap;html=1;fontSize=14;fontFamily=Helvetica;verticalAlign=middle;" parent="Lz_0s9tKfAzu82U7_1z1-57" vertex="1">
          <mxGeometry width="200" height="290" as="geometry" />
        </mxCell>
        <mxCell id="Lz_0s9tKfAzu82U7_1z1-41" value="Missing Value Generator" style="text;html=1;align=center;verticalAlign=middle;whiteSpace=wrap;rounded=0;fontSize=14;fontFamily=Helvetica;" parent="Lz_0s9tKfAzu82U7_1z1-57" vertex="1">
          <mxGeometry x="10" y="6.041666666666666" width="180" height="18.125" as="geometry" />
        </mxCell>
        <mxCell id="Lz_0s9tKfAzu82U7_1z1-61" value="Mean&lt;br style=&quot;font-size: 14px;&quot;&gt;Median&lt;br style=&quot;font-size: 14px;&quot;&gt;Mode" style="rounded=0;whiteSpace=wrap;html=1;fontSize=14;" parent="Lz_0s9tKfAzu82U7_1z1-57" vertex="1">
          <mxGeometry x="20" y="40.21" width="160" height="59.79" as="geometry" />
        </mxCell>
        <mxCell id="Lz_0s9tKfAzu82U7_1z1-64" value="Mode Imputation&lt;div style=&quot;font-size: 14px;&quot;&gt;&#39;Unkown/Missing&#39;&lt;/div&gt;" style="rounded=0;whiteSpace=wrap;html=1;fontSize=14;" parent="Lz_0s9tKfAzu82U7_1z1-57" vertex="1">
          <mxGeometry x="20" y="120" width="160" height="40" as="geometry" />
        </mxCell>
        <mxCell id="Lz_0s9tKfAzu82U7_1z1-66" value="Mode Imputation&lt;div style=&quot;font-size: 14px;&quot;&gt;&#39;False/True&#39;&lt;/div&gt;" style="rounded=0;whiteSpace=wrap;html=1;fontSize=14;" parent="Lz_0s9tKfAzu82U7_1z1-57" vertex="1">
          <mxGeometry x="20" y="180" width="160" height="40" as="geometry" />
        </mxCell>
        <mxCell id="Lz_0s9tKfAzu82U7_1z1-68" value="Interpolation" style="rounded=0;whiteSpace=wrap;html=1;fontSize=14;" parent="Lz_0s9tKfAzu82U7_1z1-57" vertex="1">
          <mxGeometry x="20" y="240" width="160" height="30" as="geometry" />
        </mxCell>
        <mxCell id="Lz_0s9tKfAzu82U7_1z1-76" style="edgeStyle=orthogonalEdgeStyle;rounded=0;orthogonalLoop=1;jettySize=auto;html=1;exitX=0;exitY=0.5;exitDx=0;exitDy=0;entryX=1;entryY=0.5;entryDx=0;entryDy=0;fontSize=14;" parent="1" source="Lz_0s9tKfAzu82U7_1z1-9" target="Lz_0s9tKfAzu82U7_1z1-61" edge="1">
          <mxGeometry relative="1" as="geometry" />
        </mxCell>
        <mxCell id="Lz_0s9tKfAzu82U7_1z1-9" value="Integer" style="whiteSpace=wrap;html=1;rounded=0;fontSize=14;fontFamily=Helvetica;verticalAlign=middle;" parent="1" vertex="1">
          <mxGeometry x="380" y="120" width="120" height="40" as="geometry" />
        </mxCell>
        <mxCell id="Lz_0s9tKfAzu82U7_1z1-77" style="edgeStyle=orthogonalEdgeStyle;rounded=0;orthogonalLoop=1;jettySize=auto;html=1;exitX=0;exitY=0.5;exitDx=0;exitDy=0;entryX=1;entryY=0.5;entryDx=0;entryDy=0;fontSize=14;" parent="1" source="Lz_0s9tKfAzu82U7_1z1-13" target="Lz_0s9tKfAzu82U7_1z1-61" edge="1">
          <mxGeometry relative="1" as="geometry" />
        </mxCell>
        <mxCell id="Lz_0s9tKfAzu82U7_1z1-13" value="Float" style="whiteSpace=wrap;html=1;rounded=0;fontSize=14;fontFamily=Helvetica;verticalAlign=middle;" parent="1" vertex="1">
          <mxGeometry x="380" y="180" width="120" height="40" as="geometry" />
        </mxCell>
        <mxCell id="Lz_0s9tKfAzu82U7_1z1-78" style="edgeStyle=orthogonalEdgeStyle;rounded=0;orthogonalLoop=1;jettySize=auto;html=1;exitX=0;exitY=0.5;exitDx=0;exitDy=0;entryX=1;entryY=0.5;entryDx=0;entryDy=0;fontSize=14;" parent="1" source="Lz_0s9tKfAzu82U7_1z1-15" target="Lz_0s9tKfAzu82U7_1z1-64" edge="1">
          <mxGeometry relative="1" as="geometry" />
        </mxCell>
        <mxCell id="Lz_0s9tKfAzu82U7_1z1-15" value="Object" style="whiteSpace=wrap;html=1;rounded=0;fontSize=14;fontFamily=Helvetica;verticalAlign=middle;" parent="1" vertex="1">
          <mxGeometry x="380" y="240" width="120" height="40" as="geometry" />
        </mxCell>
        <mxCell id="Lz_0s9tKfAzu82U7_1z1-79" style="edgeStyle=orthogonalEdgeStyle;rounded=0;orthogonalLoop=1;jettySize=auto;html=1;exitX=0;exitY=0.5;exitDx=0;exitDy=0;entryX=1;entryY=0.5;entryDx=0;entryDy=0;fontSize=14;" parent="1" source="Lz_0s9tKfAzu82U7_1z1-19" target="Lz_0s9tKfAzu82U7_1z1-66" edge="1">
          <mxGeometry relative="1" as="geometry" />
        </mxCell>
        <mxCell id="Lz_0s9tKfAzu82U7_1z1-19" value="Boolean" style="whiteSpace=wrap;html=1;rounded=0;fontSize=14;fontFamily=Helvetica;verticalAlign=middle;" parent="1" vertex="1">
          <mxGeometry x="380" y="300" width="120" height="40" as="geometry" />
        </mxCell>
        <mxCell id="Lz_0s9tKfAzu82U7_1z1-39" style="edgeStyle=orthogonalEdgeStyle;rounded=0;orthogonalLoop=1;jettySize=auto;html=1;exitX=0.5;exitY=1;exitDx=0;exitDy=0;entryX=0.5;entryY=0;entryDx=0;entryDy=0;fontSize=14;fontFamily=Helvetica;verticalAlign=middle;" parent="1" source="Lz_0s9tKfAzu82U7_1z1-30" target="Lz_0s9tKfAzu82U7_1z1-33" edge="1">
          <mxGeometry relative="1" as="geometry" />
        </mxCell>
        <mxCell id="Lz_0s9tKfAzu82U7_1z1-30" value="Date and Time" style="whiteSpace=wrap;html=1;rounded=0;fontSize=14;fontFamily=Helvetica;verticalAlign=middle;" parent="1" vertex="1">
          <mxGeometry x="380" y="360" width="120" height="40" as="geometry" />
        </mxCell>
        <mxCell id="Lz_0s9tKfAzu82U7_1z1-44" style="edgeStyle=orthogonalEdgeStyle;rounded=0;orthogonalLoop=1;jettySize=auto;html=1;exitX=0.75;exitY=1;exitDx=0;exitDy=0;entryX=1;entryY=0.5;entryDx=0;entryDy=0;fontSize=14;fontFamily=Helvetica;verticalAlign=middle;" parent="1" source="Lz_0s9tKfAzu82U7_1z1-33" target="Lz_0s9tKfAzu82U7_1z1-35" edge="1">
          <mxGeometry relative="1" as="geometry" />
        </mxCell>
        <mxCell id="Lz_0s9tKfAzu82U7_1z1-45" style="edgeStyle=orthogonalEdgeStyle;rounded=0;orthogonalLoop=1;jettySize=auto;html=1;exitX=0.5;exitY=1;exitDx=0;exitDy=0;entryX=1;entryY=0.5;entryDx=0;entryDy=0;fontSize=14;fontFamily=Helvetica;verticalAlign=middle;" parent="1" source="Lz_0s9tKfAzu82U7_1z1-33" target="Lz_0s9tKfAzu82U7_1z1-34" edge="1">
          <mxGeometry relative="1" as="geometry" />
        </mxCell>
        <mxCell id="Lz_0s9tKfAzu82U7_1z1-33" value="Parse" style="whiteSpace=wrap;html=1;rounded=0;fontSize=14;fontFamily=Helvetica;verticalAlign=middle;" parent="1" vertex="1">
          <mxGeometry x="560" y="440" width="120" height="40" as="geometry" />
        </mxCell>
        <mxCell id="Lz_0s9tKfAzu82U7_1z1-58" style="edgeStyle=orthogonalEdgeStyle;rounded=0;orthogonalLoop=1;jettySize=auto;html=1;exitX=0.75;exitY=1;exitDx=0;exitDy=0;entryX=1;entryY=0.5;entryDx=0;entryDy=0;fontSize=14;fontFamily=Helvetica;verticalAlign=middle;" parent="1" source="Lz_0s9tKfAzu82U7_1z1-34" target="Lz_0s9tKfAzu82U7_1z1-53" edge="1">
          <mxGeometry relative="1" as="geometry" />
        </mxCell>
        <mxCell id="Lz_0s9tKfAzu82U7_1z1-59" style="edgeStyle=orthogonalEdgeStyle;rounded=0;orthogonalLoop=1;jettySize=auto;html=1;exitX=0.5;exitY=1;exitDx=0;exitDy=0;entryX=1;entryY=0.5;entryDx=0;entryDy=0;fontSize=14;fontFamily=Helvetica;verticalAlign=middle;" parent="1" source="Lz_0s9tKfAzu82U7_1z1-34" target="Lz_0s9tKfAzu82U7_1z1-55" edge="1">
          <mxGeometry relative="1" as="geometry" />
        </mxCell>
        <mxCell id="Lz_0s9tKfAzu82U7_1z1-60" style="edgeStyle=orthogonalEdgeStyle;rounded=0;orthogonalLoop=1;jettySize=auto;html=1;exitX=0.25;exitY=1;exitDx=0;exitDy=0;entryX=1;entryY=0.5;entryDx=0;entryDy=0;fontSize=14;fontFamily=Helvetica;verticalAlign=middle;" parent="1" source="Lz_0s9tKfAzu82U7_1z1-34" target="Lz_0s9tKfAzu82U7_1z1-54" edge="1">
          <mxGeometry relative="1" as="geometry" />
        </mxCell>
        <mxCell id="Lz_0s9tKfAzu82U7_1z1-34" value="Date" style="whiteSpace=wrap;html=1;rounded=0;fontSize=14;fontFamily=Helvetica;verticalAlign=middle;" parent="1" vertex="1">
          <mxGeometry x="480" y="500" width="120" height="40" as="geometry" />
        </mxCell>
        <mxCell id="Lz_0s9tKfAzu82U7_1z1-49" style="edgeStyle=orthogonalEdgeStyle;rounded=0;orthogonalLoop=1;jettySize=auto;html=1;exitX=0.75;exitY=1;exitDx=0;exitDy=0;entryX=1;entryY=0.5;entryDx=0;entryDy=0;fontSize=14;fontFamily=Helvetica;verticalAlign=middle;" parent="1" source="Lz_0s9tKfAzu82U7_1z1-35" target="Lz_0s9tKfAzu82U7_1z1-46" edge="1">
          <mxGeometry relative="1" as="geometry" />
        </mxCell>
        <mxCell id="Lz_0s9tKfAzu82U7_1z1-50" style="edgeStyle=orthogonalEdgeStyle;rounded=0;orthogonalLoop=1;jettySize=auto;html=1;exitX=0.25;exitY=1;exitDx=0;exitDy=0;entryX=1;entryY=0.5;entryDx=0;entryDy=0;fontSize=14;fontFamily=Helvetica;verticalAlign=middle;" parent="1" source="Lz_0s9tKfAzu82U7_1z1-35" target="Lz_0s9tKfAzu82U7_1z1-48" edge="1">
          <mxGeometry relative="1" as="geometry" />
        </mxCell>
        <mxCell id="Lz_0s9tKfAzu82U7_1z1-52" style="edgeStyle=orthogonalEdgeStyle;rounded=0;orthogonalLoop=1;jettySize=auto;html=1;exitX=0.5;exitY=1;exitDx=0;exitDy=0;entryX=1;entryY=0.5;entryDx=0;entryDy=0;fontSize=14;fontFamily=Helvetica;verticalAlign=middle;" parent="1" source="Lz_0s9tKfAzu82U7_1z1-35" target="Lz_0s9tKfAzu82U7_1z1-51" edge="1">
          <mxGeometry relative="1" as="geometry" />
        </mxCell>
        <mxCell id="Lz_0s9tKfAzu82U7_1z1-35" value="Time" style="whiteSpace=wrap;html=1;rounded=0;fontSize=14;fontFamily=Helvetica;verticalAlign=middle;" parent="1" vertex="1">
          <mxGeometry x="480" y="670" width="120" height="40" as="geometry" />
        </mxCell>
        <mxCell id="Lz_0s9tKfAzu82U7_1z1-70" style="edgeStyle=orthogonalEdgeStyle;rounded=0;orthogonalLoop=1;jettySize=auto;html=1;exitX=0;exitY=0.5;exitDx=0;exitDy=0;entryX=1;entryY=0.5;entryDx=0;entryDy=0;fontSize=14;" parent="1" source="Lz_0s9tKfAzu82U7_1z1-46" target="Lz_0s9tKfAzu82U7_1z1-68" edge="1">
          <mxGeometry relative="1" as="geometry" />
        </mxCell>
        <mxCell id="Lz_0s9tKfAzu82U7_1z1-46" value="Second" style="whiteSpace=wrap;html=1;rounded=0;fontSize=14;fontFamily=Helvetica;verticalAlign=middle;" parent="1" vertex="1">
          <mxGeometry x="360" y="790" width="120" height="20" as="geometry" />
        </mxCell>
        <mxCell id="Lz_0s9tKfAzu82U7_1z1-72" style="edgeStyle=orthogonalEdgeStyle;rounded=0;orthogonalLoop=1;jettySize=auto;html=1;exitX=0;exitY=0.5;exitDx=0;exitDy=0;entryX=1;entryY=0.5;entryDx=0;entryDy=0;fontSize=14;" parent="1" source="Lz_0s9tKfAzu82U7_1z1-48" target="Lz_0s9tKfAzu82U7_1z1-68" edge="1">
          <mxGeometry relative="1" as="geometry" />
        </mxCell>
        <mxCell id="Lz_0s9tKfAzu82U7_1z1-48" value="Hour" style="whiteSpace=wrap;html=1;rounded=0;fontSize=14;fontFamily=Helvetica;verticalAlign=middle;" parent="1" vertex="1">
          <mxGeometry x="360" y="730" width="120" height="20" as="geometry" />
        </mxCell>
        <mxCell id="Lz_0s9tKfAzu82U7_1z1-71" style="edgeStyle=orthogonalEdgeStyle;rounded=0;orthogonalLoop=1;jettySize=auto;html=1;exitX=0;exitY=0.5;exitDx=0;exitDy=0;entryX=1;entryY=0.5;entryDx=0;entryDy=0;fontSize=14;" parent="1" source="Lz_0s9tKfAzu82U7_1z1-51" target="Lz_0s9tKfAzu82U7_1z1-68" edge="1">
          <mxGeometry relative="1" as="geometry" />
        </mxCell>
        <mxCell id="Lz_0s9tKfAzu82U7_1z1-51" value="Minute" style="whiteSpace=wrap;html=1;rounded=0;fontSize=14;fontFamily=Helvetica;verticalAlign=middle;" parent="1" vertex="1">
          <mxGeometry x="360" y="760" width="120" height="20" as="geometry" />
        </mxCell>
        <mxCell id="Lz_0s9tKfAzu82U7_1z1-73" style="edgeStyle=orthogonalEdgeStyle;rounded=0;orthogonalLoop=1;jettySize=auto;html=1;exitX=0;exitY=0.5;exitDx=0;exitDy=0;entryX=1;entryY=0.5;entryDx=0;entryDy=0;fontSize=14;" parent="1" source="Lz_0s9tKfAzu82U7_1z1-53" target="Lz_0s9tKfAzu82U7_1z1-68" edge="1">
          <mxGeometry relative="1" as="geometry" />
        </mxCell>
        <mxCell id="Lz_0s9tKfAzu82U7_1z1-53" value="Date" style="whiteSpace=wrap;html=1;rounded=0;fontSize=14;fontFamily=Helvetica;verticalAlign=middle;" parent="1" vertex="1">
          <mxGeometry x="360" y="630" width="120" height="20" as="geometry" />
        </mxCell>
        <mxCell id="Lz_0s9tKfAzu82U7_1z1-75" style="edgeStyle=orthogonalEdgeStyle;rounded=0;orthogonalLoop=1;jettySize=auto;html=1;exitX=0;exitY=0.5;exitDx=0;exitDy=0;entryX=1;entryY=0.5;entryDx=0;entryDy=0;fontSize=14;" parent="1" source="Lz_0s9tKfAzu82U7_1z1-54" target="Lz_0s9tKfAzu82U7_1z1-68" edge="1">
          <mxGeometry relative="1" as="geometry" />
        </mxCell>
        <mxCell id="Lz_0s9tKfAzu82U7_1z1-54" value="Year" style="whiteSpace=wrap;html=1;rounded=0;fontSize=14;fontFamily=Helvetica;verticalAlign=middle;" parent="1" vertex="1">
          <mxGeometry x="360" y="570" width="120" height="20" as="geometry" />
        </mxCell>
        <mxCell id="Lz_0s9tKfAzu82U7_1z1-74" style="edgeStyle=orthogonalEdgeStyle;rounded=0;orthogonalLoop=1;jettySize=auto;html=1;exitX=0;exitY=0.5;exitDx=0;exitDy=0;entryX=1;entryY=0.5;entryDx=0;entryDy=0;fontSize=14;" parent="1" source="Lz_0s9tKfAzu82U7_1z1-55" target="Lz_0s9tKfAzu82U7_1z1-68" edge="1">
          <mxGeometry relative="1" as="geometry" />
        </mxCell>
        <mxCell id="Lz_0s9tKfAzu82U7_1z1-55" value="Month" style="whiteSpace=wrap;html=1;rounded=0;fontSize=14;fontFamily=Helvetica;verticalAlign=middle;" parent="1" vertex="1">
          <mxGeometry x="360" y="600" width="120" height="20" as="geometry" />
        </mxCell>
        <mxCell id="Lz_0s9tKfAzu82U7_1z1-82" value="" style="group;fontSize=14;fontFamily=Helvetica;verticalAlign=middle;" parent="1" vertex="1" connectable="0">
          <mxGeometry x="100" y="530" width="200" height="290" as="geometry" />
        </mxCell>
        <mxCell id="Lz_0s9tKfAzu82U7_1z1-83" value="" style="rounded=0;whiteSpace=wrap;html=1;fontSize=14;fontFamily=Helvetica;verticalAlign=middle;" parent="Lz_0s9tKfAzu82U7_1z1-82" vertex="1">
          <mxGeometry width="200" height="280" as="geometry" />
        </mxCell>
        <mxCell id="Lz_0s9tKfAzu82U7_1z1-84" value="Transformer" style="text;html=1;align=center;verticalAlign=middle;whiteSpace=wrap;rounded=0;fontSize=14;fontFamily=Helvetica;" parent="Lz_0s9tKfAzu82U7_1z1-82" vertex="1">
          <mxGeometry x="10" y="6.041666666666666" width="180" height="18.125" as="geometry" />
        </mxCell>
        <mxCell id="Lz_0s9tKfAzu82U7_1z1-85" value="Normalize and Scale" style="rounded=0;whiteSpace=wrap;html=1;fontSize=14;" parent="Lz_0s9tKfAzu82U7_1z1-82" vertex="1">
          <mxGeometry x="20" y="200" width="160" height="59.79" as="geometry" />
        </mxCell>
        <mxCell id="Lz_0s9tKfAzu82U7_1z1-86" value="One Hot Encoding" style="rounded=0;whiteSpace=wrap;html=1;fontSize=14;" parent="Lz_0s9tKfAzu82U7_1z1-82" vertex="1">
          <mxGeometry x="20" y="150" width="160" height="40" as="geometry" />
        </mxCell>
        <mxCell id="Lz_0s9tKfAzu82U7_1z1-87" value="One Hot Encoding" style="rounded=0;whiteSpace=wrap;html=1;fontSize=14;" parent="Lz_0s9tKfAzu82U7_1z1-82" vertex="1">
          <mxGeometry x="20" y="100" width="160" height="40" as="geometry" />
        </mxCell>
        <mxCell id="Lz_0s9tKfAzu82U7_1z1-88" value="Timestamps" style="rounded=0;whiteSpace=wrap;html=1;fontSize=14;" parent="Lz_0s9tKfAzu82U7_1z1-82" vertex="1">
          <mxGeometry x="20" y="40.21" width="160" height="39.79" as="geometry" />
        </mxCell>
        <mxCell id="Lz_0s9tKfAzu82U7_1z1-90" style="edgeStyle=orthogonalEdgeStyle;rounded=0;orthogonalLoop=1;jettySize=auto;html=1;exitX=0;exitY=0.5;exitDx=0;exitDy=0;entryX=0;entryY=0.5;entryDx=0;entryDy=0;" parent="1" source="Lz_0s9tKfAzu82U7_1z1-61" target="Lz_0s9tKfAzu82U7_1z1-85" edge="1">
          <mxGeometry relative="1" as="geometry">
            <Array as="points">
              <mxPoint x="60" y="190" />
              <mxPoint x="60" y="760" />
            </Array>
          </mxGeometry>
        </mxCell>
        <mxCell id="Lz_0s9tKfAzu82U7_1z1-91" style="edgeStyle=orthogonalEdgeStyle;rounded=0;orthogonalLoop=1;jettySize=auto;html=1;exitX=0;exitY=0.5;exitDx=0;exitDy=0;entryX=0;entryY=0.5;entryDx=0;entryDy=0;" parent="1" source="Lz_0s9tKfAzu82U7_1z1-64" target="Lz_0s9tKfAzu82U7_1z1-86" edge="1">
          <mxGeometry relative="1" as="geometry">
            <Array as="points">
              <mxPoint x="70" y="260" />
              <mxPoint x="70" y="700" />
            </Array>
          </mxGeometry>
        </mxCell>
        <mxCell id="Lz_0s9tKfAzu82U7_1z1-92" style="edgeStyle=orthogonalEdgeStyle;rounded=0;orthogonalLoop=1;jettySize=auto;html=1;exitX=0;exitY=0.5;exitDx=0;exitDy=0;entryX=0;entryY=0.5;entryDx=0;entryDy=0;" parent="1" source="Lz_0s9tKfAzu82U7_1z1-66" target="Lz_0s9tKfAzu82U7_1z1-87" edge="1">
          <mxGeometry relative="1" as="geometry">
            <Array as="points">
              <mxPoint x="80" y="320" />
              <mxPoint x="80" y="650" />
            </Array>
          </mxGeometry>
        </mxCell>
        <mxCell id="Lz_0s9tKfAzu82U7_1z1-93" style="edgeStyle=orthogonalEdgeStyle;rounded=0;orthogonalLoop=1;jettySize=auto;html=1;exitX=0;exitY=0.5;exitDx=0;exitDy=0;entryX=0;entryY=0.5;entryDx=0;entryDy=0;" parent="1" source="Lz_0s9tKfAzu82U7_1z1-68" target="Lz_0s9tKfAzu82U7_1z1-88" edge="1">
          <mxGeometry relative="1" as="geometry">
            <Array as="points">
              <mxPoint x="90" y="375" />
              <mxPoint x="90" y="590" />
            </Array>
          </mxGeometry>
        </mxCell>
        <mxCell id="yUvDNJtRENZzzYbExARZ-10" style="edgeStyle=orthogonalEdgeStyle;rounded=0;orthogonalLoop=1;jettySize=auto;html=1;exitX=0.5;exitY=1;exitDx=0;exitDy=0;entryX=0.5;entryY=0;entryDx=0;entryDy=0;" edge="1" parent="1" source="Lz_0s9tKfAzu82U7_1z1-94" target="Lz_0s9tKfAzu82U7_1z1-97">
          <mxGeometry relative="1" as="geometry" />
        </mxCell>
        <mxCell id="Lz_0s9tKfAzu82U7_1z1-94" value="GAN" style="whiteSpace=wrap;html=1;rounded=0;fontSize=14;fontFamily=Helvetica;verticalAlign=middle;" parent="1" vertex="1">
          <mxGeometry x="1100" y="40" width="120" height="40" as="geometry" />
        </mxCell>
        <mxCell id="Lz_0s9tKfAzu82U7_1z1-95" style="edgeStyle=orthogonalEdgeStyle;rounded=0;orthogonalLoop=1;jettySize=auto;html=1;exitX=0.5;exitY=1;exitDx=0;exitDy=0;entryX=0;entryY=0.5;entryDx=0;entryDy=0;" parent="1" source="Lz_0s9tKfAzu82U7_1z1-83" target="Lz_0s9tKfAzu82U7_1z1-94" edge="1">
          <mxGeometry relative="1" as="geometry">
            <Array as="points">
              <mxPoint x="200" y="850" />
              <mxPoint x="720" y="850" />
              <mxPoint x="720" y="60" />
            </Array>
          </mxGeometry>
        </mxCell>
        <mxCell id="yUvDNJtRENZzzYbExARZ-119" style="edgeStyle=orthogonalEdgeStyle;rounded=0;orthogonalLoop=1;jettySize=auto;html=1;exitX=1;exitY=0.5;exitDx=0;exitDy=0;entryX=0;entryY=0.5;entryDx=0;entryDy=0;" edge="1" parent="1" source="Lz_0s9tKfAzu82U7_1z1-97" target="yUvDNJtRENZzzYbExARZ-112">
          <mxGeometry relative="1" as="geometry" />
        </mxCell>
        <mxCell id="Lz_0s9tKfAzu82U7_1z1-97" value="" style="rounded=0;whiteSpace=wrap;html=1;fillColor=none;fontSize=14;fontFamily=Helvetica;verticalAlign=middle;" parent="1" vertex="1">
          <mxGeometry x="740" y="100" width="840" height="730" as="geometry" />
        </mxCell>
        <mxCell id="7vlPjH-xqfgEaJO80bJL-1" value="Save as Dictionary" style="rounded=0;whiteSpace=wrap;html=1;" parent="1" vertex="1">
          <mxGeometry x="120" y="430" width="160" height="40" as="geometry" />
        </mxCell>
        <mxCell id="7vlPjH-xqfgEaJO80bJL-2" value="" style="edgeStyle=orthogonalEdgeStyle;rounded=0;orthogonalLoop=1;jettySize=auto;html=1;entryX=0.5;entryY=1;entryDx=0;entryDy=0;" parent="1" source="Lz_0s9tKfAzu82U7_1z1-83" target="7vlPjH-xqfgEaJO80bJL-1" edge="1">
          <mxGeometry relative="1" as="geometry" />
        </mxCell>
        <mxCell id="yUvDNJtRENZzzYbExARZ-45" style="edgeStyle=orthogonalEdgeStyle;rounded=0;orthogonalLoop=1;jettySize=auto;html=1;exitX=0;exitY=0.5;exitDx=0;exitDy=0;entryX=1;entryY=0.5;entryDx=0;entryDy=0;" edge="1" parent="1" source="yUvDNJtRENZzzYbExARZ-3" target="yUvDNJtRENZzzYbExARZ-43">
          <mxGeometry relative="1" as="geometry">
            <Array as="points">
              <mxPoint x="760" y="140" />
              <mxPoint x="760" y="810" />
              <mxPoint x="1560" y="810" />
              <mxPoint x="1560" y="440" />
            </Array>
          </mxGeometry>
        </mxCell>
        <mxCell id="yUvDNJtRENZzzYbExARZ-3" value="Φ&lt;sub&gt;G&lt;/sub&gt;" style="ellipse;whiteSpace=wrap;html=1;" vertex="1" parent="1">
          <mxGeometry x="780" y="120" width="40" height="40" as="geometry" />
        </mxCell>
        <mxCell id="yUvDNJtRENZzzYbExARZ-54" style="edgeStyle=orthogonalEdgeStyle;rounded=0;orthogonalLoop=1;jettySize=auto;html=1;exitX=0;exitY=0.5;exitDx=0;exitDy=0;entryX=1;entryY=0.5;entryDx=0;entryDy=0;" edge="1" parent="1" source="yUvDNJtRENZzzYbExARZ-4" target="yUvDNJtRENZzzYbExARZ-51">
          <mxGeometry relative="1" as="geometry">
            <Array as="points">
              <mxPoint x="860" y="140" />
              <mxPoint x="860" y="770" />
              <mxPoint x="1260" y="770" />
              <mxPoint x="1260" y="540" />
            </Array>
          </mxGeometry>
        </mxCell>
        <mxCell id="yUvDNJtRENZzzYbExARZ-4" value="Φ&lt;sub&gt;C&lt;/sub&gt;" style="ellipse;whiteSpace=wrap;html=1;" vertex="1" parent="1">
          <mxGeometry x="880" y="120" width="40" height="40" as="geometry" />
        </mxCell>
        <mxCell id="yUvDNJtRENZzzYbExARZ-28" style="edgeStyle=orthogonalEdgeStyle;rounded=0;orthogonalLoop=1;jettySize=auto;html=1;exitX=1;exitY=0.5;exitDx=0;exitDy=0;entryX=0;entryY=0.5;entryDx=0;entryDy=0;" edge="1" parent="1" source="yUvDNJtRENZzzYbExARZ-5" target="yUvDNJtRENZzzYbExARZ-14">
          <mxGeometry relative="1" as="geometry" />
        </mxCell>
        <mxCell id="yUvDNJtRENZzzYbExARZ-5" value="Batch size &lt;i&gt;m: 500&lt;/i&gt;" style="ellipse;whiteSpace=wrap;html=1;" vertex="1" parent="1">
          <mxGeometry x="1180" y="120" width="160" height="40" as="geometry" />
        </mxCell>
        <mxCell id="yUvDNJtRENZzzYbExARZ-69" style="edgeStyle=orthogonalEdgeStyle;rounded=0;orthogonalLoop=1;jettySize=auto;html=1;entryX=0.5;entryY=0;entryDx=0;entryDy=0;" edge="1" parent="1" source="yUvDNJtRENZzzYbExARZ-7" target="yUvDNJtRENZzzYbExARZ-56">
          <mxGeometry relative="1" as="geometry" />
        </mxCell>
        <mxCell id="yUvDNJtRENZzzYbExARZ-7" value="&lt;i&gt;pac: 10&lt;/i&gt;" style="ellipse;whiteSpace=wrap;html=1;" vertex="1" parent="1">
          <mxGeometry x="1040" y="120" width="100" height="40" as="geometry" />
        </mxCell>
        <mxCell id="yUvDNJtRENZzzYbExARZ-37" style="edgeStyle=orthogonalEdgeStyle;rounded=0;orthogonalLoop=1;jettySize=auto;html=1;exitX=0.5;exitY=1;exitDx=0;exitDy=0;entryX=0.5;entryY=0;entryDx=0;entryDy=0;" edge="1" parent="1" source="yUvDNJtRENZzzYbExARZ-8" target="yUvDNJtRENZzzYbExARZ-14">
          <mxGeometry relative="1" as="geometry" />
        </mxCell>
        <mxCell id="yUvDNJtRENZzzYbExARZ-8" value="Normalized Data" style="ellipse;whiteSpace=wrap;html=1;" vertex="1" parent="1">
          <mxGeometry x="1380" y="120" width="160" height="40" as="geometry" />
        </mxCell>
        <mxCell id="yUvDNJtRENZzzYbExARZ-13" value="&lt;i&gt;epochs: 300&lt;/i&gt;" style="text;html=1;align=center;verticalAlign=middle;whiteSpace=wrap;rounded=0;fillColor=#f5f5f5;fontColor=#333333;strokeColor=none;" vertex="1" parent="1">
          <mxGeometry x="1280" y="40" width="120" height="40" as="geometry" />
        </mxCell>
        <mxCell id="yUvDNJtRENZzzYbExARZ-38" style="edgeStyle=orthogonalEdgeStyle;rounded=0;orthogonalLoop=1;jettySize=auto;html=1;exitX=0.5;exitY=1;exitDx=0;exitDy=0;entryX=0.5;entryY=0;entryDx=0;entryDy=0;" edge="1" parent="1" source="yUvDNJtRENZzzYbExARZ-14" target="yUvDNJtRENZzzYbExARZ-19">
          <mxGeometry relative="1" as="geometry" />
        </mxCell>
        <mxCell id="yUvDNJtRENZzzYbExARZ-14" value="Create &lt;i&gt;m&lt;/i&gt; batches" style="rounded=0;whiteSpace=wrap;html=1;" vertex="1" parent="1">
          <mxGeometry x="1380" y="180" width="160" height="40" as="geometry" />
        </mxCell>
        <mxCell id="yUvDNJtRENZzzYbExARZ-32" style="edgeStyle=orthogonalEdgeStyle;rounded=0;orthogonalLoop=1;jettySize=auto;html=1;entryX=0.5;entryY=0;entryDx=0;entryDy=0;" edge="1" parent="1" source="yUvDNJtRENZzzYbExARZ-19" target="yUvDNJtRENZzzYbExARZ-25">
          <mxGeometry relative="1" as="geometry" />
        </mxCell>
        <mxCell id="yUvDNJtRENZzzYbExARZ-59" style="edgeStyle=orthogonalEdgeStyle;rounded=0;orthogonalLoop=1;jettySize=auto;html=1;exitX=0;exitY=0.5;exitDx=0;exitDy=0;entryX=0.25;entryY=0;entryDx=0;entryDy=0;" edge="1" parent="1" source="yUvDNJtRENZzzYbExARZ-19" target="yUvDNJtRENZzzYbExARZ-31">
          <mxGeometry relative="1" as="geometry" />
        </mxCell>
        <mxCell id="yUvDNJtRENZzzYbExARZ-19" value="conditional vectors&lt;br&gt;&lt;i&gt;cond&lt;sub&gt;j&lt;/sub&gt;&lt;/i&gt;" style="rounded=0;whiteSpace=wrap;html=1;" vertex="1" parent="1">
          <mxGeometry x="1380" y="240" width="160" height="60" as="geometry" />
        </mxCell>
        <mxCell id="yUvDNJtRENZzzYbExARZ-33" style="edgeStyle=orthogonalEdgeStyle;rounded=0;orthogonalLoop=1;jettySize=auto;html=1;exitX=0;exitY=0.5;exitDx=0;exitDy=0;entryX=0.25;entryY=0;entryDx=0;entryDy=0;" edge="1" parent="1" source="yUvDNJtRENZzzYbExARZ-25" target="yUvDNJtRENZzzYbExARZ-31">
          <mxGeometry relative="1" as="geometry" />
        </mxCell>
        <mxCell id="yUvDNJtRENZzzYbExARZ-25" value="&lt;i&gt;Sample{z&lt;sub&gt;j&lt;/sub&gt;}&lt;/i&gt;" style="rounded=0;whiteSpace=wrap;html=1;" vertex="1" parent="1">
          <mxGeometry x="1380" y="320" width="160" height="40" as="geometry" />
        </mxCell>
        <mxCell id="yUvDNJtRENZzzYbExARZ-31" value="" style="rounded=0;whiteSpace=wrap;html=1;fillColor=none;" vertex="1" parent="1">
          <mxGeometry x="1300" y="380" width="240" height="390" as="geometry" />
        </mxCell>
        <mxCell id="yUvDNJtRENZzzYbExARZ-34" value="Generator &lt;i&gt;(z&lt;sub&gt;j&lt;/sub&gt;, cond&lt;sub&gt;j&lt;/sub&gt;)&lt;/i&gt;" style="text;html=1;align=center;verticalAlign=middle;whiteSpace=wrap;rounded=0;" vertex="1" parent="1">
          <mxGeometry x="1320" y="390" width="200" height="20" as="geometry" />
        </mxCell>
        <mxCell id="yUvDNJtRENZzzYbExARZ-36" value="&lt;i&gt;fake_cond&lt;/i&gt; (Data)" style="rounded=0;whiteSpace=wrap;html=1;" vertex="1" parent="1">
          <mxGeometry x="1320" y="710" width="140" height="40" as="geometry" />
        </mxCell>
        <mxCell id="yUvDNJtRENZzzYbExARZ-44" style="edgeStyle=orthogonalEdgeStyle;rounded=0;orthogonalLoop=1;jettySize=auto;html=1;exitX=0.5;exitY=1;exitDx=0;exitDy=0;entryX=0.5;entryY=1;entryDx=0;entryDy=0;" edge="1" parent="1" source="yUvDNJtRENZzzYbExARZ-40" target="yUvDNJtRENZzzYbExARZ-3">
          <mxGeometry relative="1" as="geometry">
            <Array as="points">
              <mxPoint x="1500" y="790" />
              <mxPoint x="800" y="790" />
            </Array>
          </mxGeometry>
        </mxCell>
        <mxCell id="yUvDNJtRENZzzYbExARZ-40" value="Φ&lt;sub&gt;G&lt;/sub&gt;*" style="ellipse;whiteSpace=wrap;html=1;" vertex="1" parent="1">
          <mxGeometry x="1480" y="710" width="40" height="40" as="geometry" />
        </mxCell>
        <mxCell id="yUvDNJtRENZzzYbExARZ-43" value="Φ&lt;sub&gt;G&lt;/sub&gt;" style="ellipse;whiteSpace=wrap;html=1;" vertex="1" parent="1">
          <mxGeometry x="1480" y="420" width="40" height="40" as="geometry" />
        </mxCell>
        <mxCell id="yUvDNJtRENZzzYbExARZ-103" style="edgeStyle=orthogonalEdgeStyle;rounded=0;orthogonalLoop=1;jettySize=auto;html=1;entryX=0.5;entryY=0;entryDx=0;entryDy=0;" edge="1" parent="1" source="yUvDNJtRENZzzYbExARZ-46" target="yUvDNJtRENZzzYbExARZ-36">
          <mxGeometry relative="1" as="geometry" />
        </mxCell>
        <mxCell id="yUvDNJtRENZzzYbExARZ-46" value="Real &lt;i&gt;cond&lt;sub&gt;j&lt;/sub&gt;&lt;/i&gt;" style="rounded=0;whiteSpace=wrap;html=1;" vertex="1" parent="1">
          <mxGeometry x="1320" y="420" width="140" height="40" as="geometry" />
        </mxCell>
        <mxCell id="yUvDNJtRENZzzYbExARZ-49" value="h0 = concat(z, cond)" style="rounded=0;whiteSpace=wrap;html=1;" vertex="1" parent="1">
          <mxGeometry x="1320" y="480" width="200" height="20" as="geometry" />
        </mxCell>
        <mxCell id="yUvDNJtRENZzzYbExARZ-50" value="" style="rounded=0;whiteSpace=wrap;html=1;fillColor=none;" vertex="1" parent="1">
          <mxGeometry x="940" y="480" width="300" height="250" as="geometry" />
        </mxCell>
        <mxCell id="yUvDNJtRENZzzYbExARZ-51" value="Φ&lt;sub&gt;C&lt;/sub&gt;" style="ellipse;whiteSpace=wrap;html=1;" vertex="1" parent="1">
          <mxGeometry x="1180" y="520" width="40" height="40" as="geometry" />
        </mxCell>
        <mxCell id="yUvDNJtRENZzzYbExARZ-53" style="edgeStyle=orthogonalEdgeStyle;rounded=0;orthogonalLoop=1;jettySize=auto;html=1;exitX=0.5;exitY=1;exitDx=0;exitDy=0;entryX=0.5;entryY=1;entryDx=0;entryDy=0;" edge="1" parent="1" source="yUvDNJtRENZzzYbExARZ-52" target="yUvDNJtRENZzzYbExARZ-4">
          <mxGeometry relative="1" as="geometry">
            <Array as="points">
              <mxPoint x="980" y="750" />
              <mxPoint x="900" y="750" />
            </Array>
          </mxGeometry>
        </mxCell>
        <mxCell id="yUvDNJtRENZzzYbExARZ-52" value="Φ&lt;sub&gt;C&lt;/sub&gt;*" style="ellipse;whiteSpace=wrap;html=1;" vertex="1" parent="1">
          <mxGeometry x="960" y="670" width="40" height="40" as="geometry" />
        </mxCell>
        <mxCell id="yUvDNJtRENZzzYbExARZ-55" value="Critic&amp;nbsp;&lt;i&gt;(fake_cond&lt;span style=&quot;font-size: 10px;&quot;&gt;&lt;sub&gt;pac&lt;/sub&gt;, real_cond&lt;sub&gt;pac&lt;/sub&gt;&lt;/span&gt;)&lt;/i&gt;" style="text;html=1;align=center;verticalAlign=middle;whiteSpace=wrap;rounded=0;" vertex="1" parent="1">
          <mxGeometry x="960" y="490" width="260" height="20" as="geometry" />
        </mxCell>
        <mxCell id="yUvDNJtRENZzzYbExARZ-82" style="edgeStyle=orthogonalEdgeStyle;rounded=0;orthogonalLoop=1;jettySize=auto;html=1;exitX=0.5;exitY=1;exitDx=0;exitDy=0;entryX=0.5;entryY=0;entryDx=0;entryDy=0;" edge="1" parent="1" source="yUvDNJtRENZzzYbExARZ-56" target="yUvDNJtRENZzzYbExARZ-50">
          <mxGeometry relative="1" as="geometry" />
        </mxCell>
        <mxCell id="yUvDNJtRENZzzYbExARZ-56" value="" style="rounded=0;whiteSpace=wrap;html=1;fillColor=none;" vertex="1" parent="1">
          <mxGeometry x="940" y="200" width="300" height="260" as="geometry" />
        </mxCell>
        <mxCell id="yUvDNJtRENZzzYbExARZ-57" value="PacGAN(real_cond, fake_cond)" style="text;html=1;align=center;verticalAlign=middle;whiteSpace=wrap;rounded=0;" vertex="1" parent="1">
          <mxGeometry x="960" y="210" width="260" height="20" as="geometry" />
        </mxCell>
        <mxCell id="yUvDNJtRENZzzYbExARZ-80" style="edgeStyle=orthogonalEdgeStyle;rounded=0;orthogonalLoop=1;jettySize=auto;html=1;entryX=0.5;entryY=0;entryDx=0;entryDy=0;" edge="1" parent="1" source="yUvDNJtRENZzzYbExARZ-62" target="yUvDNJtRENZzzYbExARZ-66">
          <mxGeometry relative="1" as="geometry" />
        </mxCell>
        <mxCell id="yUvDNJtRENZzzYbExARZ-62" value="fake_cond" style="rounded=0;whiteSpace=wrap;html=1;" vertex="1" parent="1">
          <mxGeometry x="960" y="240" width="120" height="20" as="geometry" />
        </mxCell>
        <mxCell id="yUvDNJtRENZzzYbExARZ-81" style="edgeStyle=orthogonalEdgeStyle;rounded=0;orthogonalLoop=1;jettySize=auto;html=1;entryX=0.5;entryY=0;entryDx=0;entryDy=0;" edge="1" parent="1" source="yUvDNJtRENZzzYbExARZ-63" target="yUvDNJtRENZzzYbExARZ-67">
          <mxGeometry relative="1" as="geometry" />
        </mxCell>
        <mxCell id="yUvDNJtRENZzzYbExARZ-63" value="real_cond" style="rounded=0;whiteSpace=wrap;html=1;" vertex="1" parent="1">
          <mxGeometry x="1100" y="240" width="120" height="20" as="geometry" />
        </mxCell>
        <mxCell id="yUvDNJtRENZzzYbExARZ-66" value="fake_cond&lt;sub&gt;pac&lt;/sub&gt;" style="rounded=0;whiteSpace=wrap;html=1;" vertex="1" parent="1">
          <mxGeometry x="960" y="410" width="120" height="30" as="geometry" />
        </mxCell>
        <mxCell id="yUvDNJtRENZzzYbExARZ-67" value="real_cond&lt;sub&gt;pac&lt;/sub&gt;" style="rounded=0;whiteSpace=wrap;html=1;" vertex="1" parent="1">
          <mxGeometry x="1100" y="410" width="120" height="30" as="geometry" />
        </mxCell>
        <mxCell id="yUvDNJtRENZzzYbExARZ-75" value="h&lt;span style=&quot;font-size: 10px;&quot;&gt;&lt;sub&gt;0&lt;/sub&gt;&lt;/span&gt;&amp;nbsp;= (concatenation of cond&lt;sub&gt;j&lt;/sub&gt;)&lt;sub&gt;10&lt;/sub&gt;" style="rounded=0;whiteSpace=wrap;html=1;" vertex="1" parent="1">
          <mxGeometry x="960" y="280" width="260" height="20" as="geometry" />
        </mxCell>
        <mxCell id="yUvDNJtRENZzzYbExARZ-76" value="h&lt;sub&gt;1&lt;/sub&gt; = drop(leaky&lt;sub&gt;0.2&lt;/sub&gt;(256 layers))" style="rounded=0;whiteSpace=wrap;html=1;" vertex="1" parent="1">
          <mxGeometry x="960" y="310" width="260" height="20" as="geometry" />
        </mxCell>
        <mxCell id="yUvDNJtRENZzzYbExARZ-77" value="h&lt;sub&gt;2&lt;/sub&gt; = drop(leaky&lt;sub&gt;0.2&lt;/sub&gt;(256 layers))" style="rounded=0;whiteSpace=wrap;html=1;" vertex="1" parent="1">
          <mxGeometry x="960" y="340" width="260" height="20" as="geometry" />
        </mxCell>
        <mxCell id="yUvDNJtRENZzzYbExARZ-78" value="&lt;i&gt;C&lt;/i&gt; = 1 layer" style="rounded=0;whiteSpace=wrap;html=1;" vertex="1" parent="1">
          <mxGeometry x="960" y="370" width="260" height="20" as="geometry" />
        </mxCell>
        <mxCell id="yUvDNJtRENZzzYbExARZ-108" style="edgeStyle=orthogonalEdgeStyle;rounded=0;orthogonalLoop=1;jettySize=auto;html=1;entryX=0.5;entryY=0;entryDx=0;entryDy=0;" edge="1" parent="1" source="yUvDNJtRENZzzYbExARZ-83" target="yUvDNJtRENZzzYbExARZ-85">
          <mxGeometry relative="1" as="geometry" />
        </mxCell>
        <mxCell id="yUvDNJtRENZzzYbExARZ-83" value="fake&lt;sub&gt;pac&lt;/sub&gt;" style="ellipse;whiteSpace=wrap;html=1;" vertex="1" parent="1">
          <mxGeometry x="960" y="520" width="80" height="40" as="geometry" />
        </mxCell>
        <mxCell id="yUvDNJtRENZzzYbExARZ-109" style="edgeStyle=orthogonalEdgeStyle;rounded=0;orthogonalLoop=1;jettySize=auto;html=1;entryX=0.5;entryY=0;entryDx=0;entryDy=0;" edge="1" parent="1" source="yUvDNJtRENZzzYbExARZ-84" target="yUvDNJtRENZzzYbExARZ-85">
          <mxGeometry relative="1" as="geometry" />
        </mxCell>
        <mxCell id="yUvDNJtRENZzzYbExARZ-84" value="real&lt;sub&gt;pac&lt;/sub&gt;" style="ellipse;whiteSpace=wrap;html=1;" vertex="1" parent="1">
          <mxGeometry x="1080" y="520" width="80" height="40" as="geometry" />
        </mxCell>
        <mxCell id="yUvDNJtRENZzzYbExARZ-85" value="&lt;i&gt;F(f&lt;sub&gt;p&lt;/sub&gt;, r&lt;sub&gt;p&lt;/sub&gt;)&lt;/i&gt;" style="rounded=0;whiteSpace=wrap;html=1;" vertex="1" parent="1">
          <mxGeometry x="960" y="600" width="260" height="40" as="geometry" />
        </mxCell>
        <mxCell id="yUvDNJtRENZzzYbExARZ-98" value="h1 = Relu(256 layers)" style="rounded=0;whiteSpace=wrap;html=1;" vertex="1" parent="1">
          <mxGeometry x="1320" y="510" width="200" height="20" as="geometry" />
        </mxCell>
        <mxCell id="yUvDNJtRENZzzYbExARZ-104" value="h2 = Relu(256 layers)" style="rounded=0;whiteSpace=wrap;html=1;" vertex="1" parent="1">
          <mxGeometry x="1320" y="540" width="200" height="20" as="geometry" />
        </mxCell>
        <mxCell id="yUvDNJtRENZzzYbExARZ-105" value="α̂ = tanh (512 layers)" style="rounded=0;whiteSpace=wrap;html=1;" vertex="1" parent="1">
          <mxGeometry x="1320" y="570" width="200" height="20" as="geometry" />
        </mxCell>
        <mxCell id="yUvDNJtRENZzzYbExARZ-106" value="β̂&amp;nbsp;= gumbel (512 layers)" style="rounded=0;whiteSpace=wrap;html=1;" vertex="1" parent="1">
          <mxGeometry x="1320" y="600" width="200" height="20" as="geometry" />
        </mxCell>
        <mxCell id="yUvDNJtRENZzzYbExARZ-107" value="d̂&amp;nbsp;= gumbel (512 layers)" style="rounded=0;whiteSpace=wrap;html=1;" vertex="1" parent="1">
          <mxGeometry x="1320" y="630" width="200" height="20" as="geometry" />
        </mxCell>
        <mxCell id="yUvDNJtRENZzzYbExARZ-111" style="edgeStyle=orthogonalEdgeStyle;rounded=0;orthogonalLoop=1;jettySize=auto;html=1;entryX=0;entryY=0.5;entryDx=0;entryDy=0;" edge="1" parent="1" source="yUvDNJtRENZzzYbExARZ-110" target="yUvDNJtRENZzzYbExARZ-34">
          <mxGeometry relative="1" as="geometry">
            <Array as="points">
              <mxPoint x="1280" y="690" />
              <mxPoint x="1280" y="400" />
            </Array>
          </mxGeometry>
        </mxCell>
        <mxCell id="yUvDNJtRENZzzYbExARZ-110" value="penalty" style="ellipse;whiteSpace=wrap;html=1;" vertex="1" parent="1">
          <mxGeometry x="1140" y="670" width="80" height="40" as="geometry" />
        </mxCell>
        <mxCell id="yUvDNJtRENZzzYbExARZ-112" value="" style="rounded=0;whiteSpace=wrap;html=1;fillColor=none;" vertex="1" parent="1">
          <mxGeometry x="1620" y="330" width="260" height="270" as="geometry" />
        </mxCell>
        <mxCell id="yUvDNJtRENZzzYbExARZ-114" value="&lt;i&gt;after epochs: 300&lt;/i&gt;" style="text;html=1;align=center;verticalAlign=middle;whiteSpace=wrap;rounded=0;fillColor=#f5f5f5;fontColor=#333333;strokeColor=none;" vertex="1" parent="1">
          <mxGeometry x="1640" y="350" width="220" height="30" as="geometry" />
        </mxCell>
        <mxCell id="yUvDNJtRENZzzYbExARZ-115" value="new data" style="rounded=0;whiteSpace=wrap;html=1;" vertex="1" parent="1">
          <mxGeometry x="1640" y="390" width="220" height="40" as="geometry" />
        </mxCell>
        <mxCell id="yUvDNJtRENZzzYbExARZ-117" value="" style="rounded=0;whiteSpace=wrap;html=1;" vertex="1" parent="1">
          <mxGeometry x="1640" y="440" width="220" height="140" as="geometry" />
        </mxCell>
        <mxCell id="yUvDNJtRENZzzYbExARZ-118" value="Generator parameter: Φ&lt;sub&gt;G&lt;/sub&gt;" style="rounded=0;whiteSpace=wrap;html=1;" vertex="1" parent="1">
          <mxGeometry x="1650" y="480" width="200" height="40" as="geometry" />
        </mxCell>
        <mxCell id="yUvDNJtRENZzzYbExARZ-120" value="Critic parameter: Φ&lt;sub&gt;C&lt;/sub&gt;" style="rounded=0;whiteSpace=wrap;html=1;" vertex="1" parent="1">
          <mxGeometry x="1650" y="530" width="200" height="40" as="geometry" />
        </mxCell>
        <mxCell id="yUvDNJtRENZzzYbExARZ-121" value="Parameters" style="text;html=1;align=center;verticalAlign=middle;whiteSpace=wrap;rounded=0;" vertex="1" parent="1">
          <mxGeometry x="1650" y="450" width="200" height="20" as="geometry" />
        </mxCell>
      </root>
    </mxGraphModel>
  </diagram>
</mxfile>
